PathFileType	4	(X/Y/Z)	Kaydara																																																																																																																									
DataRate	CameraRate	NumFrames	NumMarkers	Units	OrigDataRate	OrigDataStartFrame	OrigNumFrames																																																																																																																					
30	30	4	41	mm	30	47	180																																																																																																																					
Frame#	Time	SALE_LFHD			SALE_RFHD			SALE_LBHD			SALE_RBHD			SALE_LFTShould			SALE_RFTShould			SALE_LRRShould			SALE_RRRShould			SALE_T10			SALE_STRN			SALE_TRUN			SALE_LSHO			SALE_LUPA			SALE_LELB			SALE_LFRM			SALE_LWRA			SALE_LWRB			SALE_LFIN			SALE_RSHO			SALE_RUPA			SALE_RELB			SALE_RFRM			SALE_RWRB			SALE_RFIN			SALE_LFWT			SALE_RFWT			SALE_LBWT			SALE_RBWT			SALE_LTHI			SALE_LKNE			SALE_RWRA			SALE_LSHN			SALE_LANK			SALE_LHEE			SALE_LTOE			SALE_RTHI			SALE_RKNE			SALE_RSHN			SALE_RANK			SALE_RHEE			SALE_RTOE		
		X1	Y1	Z1	X2	Y2	Z2	X3	Y3	Z3	X4	Y4	Z4	X5	Y5	Z5	X6	Y6	Z6	X7	Y7	Z7	X8	Y8	Z8	X9	Y9	Z9	X10	Y10	Z10	X11	Y11	Z11	X12	Y12	Z12	X13	Y13	Z13	X14	Y14	Z14	X15	Y15	Z15	X16	Y16	Z16	X17	Y17	Z17	X18	Y18	Z18	X19	Y19	Z19	X20	Y20	Z20	X21	Y21	Z21	X22	Y22	Z22	X23	Y23	Z23	X24	Y24	Z24	X25	Y25	Z25	X26	Y26	Z26	X27	Y27	Z27	X28	Y28	Z28	X29	Y29	Z29	X30	Y30	Z30	X31	Y31	Z31	X32	Y32	Z32	X33	Y33	Z33	X34	Y34	Z34	X35	Y35	Z35	X36	Y36	Z36	X37	Y37	Z37	X38	Y38	Z38	X39	Y39	Z39	X40	Y40	Z40	X41	Y41	Z41
																																																																																																																												
46	1.55	222.17241	1650.32242	-2001.71051	90.91039	1643.64197	-2006.61285	223.53741	1640.10406	-2136.86035	96.81439	1632.1524	-2134.28421	240.67913	1389.82544	-2055.56442	99.04435	1387.77878	-2054.48898	232.91132	1446.59134	-2169.50409	82.1513	1450.79208	-2160.26978	155.48002	1293.90732	-2232.2525	165.89834	1317.83478	-2006.24146	163.8492	1231.83121	-1964.68292	355.04444	1413.9035	-2126.2146	394.52293	1195.02602	-2130.7959	379.62437	1085.50148	-2145.62469	403.34038	982.03674	-2103.8623	332.5127	851.62827	-2034.15939	401.51649	839.71451	-2065.47165	393.80386	802.46758	-2013.78143	-10.05814	1416.91071	-2114.87061	-42.47056	1185.5101	-2174.05273	-68.19143	1085.70801	-2127.44583	-59.37271	973.00514	-2134.77325	-79.45164	838.1839	-2083.15231	-85.34126	799.93324	-2027.73575	291.05326	975.80521	-2017.48871	11.83254	973.68866	-2036.36902	242.59167	1043.3651	-2187.0694	65.7857	1047.44385	-2198.28278	295.14194	677.66563	-2188.64304	282.09957	505.11589	-2115.59357	-31.95978	851.37253	-2028.88809	279.08234	309.07801	-2118.41232	274.73419	124.99992	-2169.26437	234.82378	75.89993	-2231.3298	249.63474	87.13139	-2034.40643	9.98472	723.81485	-2194.32663	28.39491	563.90697	-2091.05743	81.35856	376.03191	-2105.62775	37.98596	122.97058	-2157.01019	48.25716	79.23578	-2035.85068	83.94653	62.43888	-2226.27716
47	1.583	222.18012	1650.2742	-2000.90607	90.82891	1643.63708	-2005.90591	223.66459	1640.07614	-2136.03333	96.89835	1632.11227	-2133.57758	240.70234	1389.77982	-2054.8175	99.09852	1387.61108	-2053.74054	232.9401	1446.57471	-2168.79593	82.19721	1450.82687	-2159.58466	155.50298	1294.01703	-2231.68716	165.84265	1317.73529	-2005.63568	163.81596	1231.6655	-1964.19373	354.94244	1413.72925	-2125.20828	394.47163	1195.01144	-2130.20905	379.61758	1085.45105	-2145.04349	403.34778	981.99059	-2103.30276	332.50858	851.7318	-2033.60229	401.52508	839.67888	-2064.9408	393.79578	802.37572	-2013.27469	-10.07794	1416.93726	-2114.36142	-42.61781	1185.61775	-2173.93997	-68.25827	1085.76599	-2127.23099	-59.38038	972.96402	-2134.47891	-79.57538	838.19344	-2082.95532	-85.48819	799.91341	-2027.47894	290.97416	975.71266	-2017.03278	11.75489	973.71086	-2035.93262	242.58167	1043.39211	-2186.63788	65.74449	1047.43217	-2197.92358	295.1022	677.6754	-2188.33771	282.22538	505.36865	-2114.98306	-32.06946	851.29066	-2028.56567	279.0531	309.02008	-2118.32855	274.7298	125.03189	-2169.18777	234.78994	75.92195	-2231.35147	249.63121	87.1292	-2034.37057	9.96546	723.81256	-2194.08966	28.33987	563.86307	-2090.90805	81.29182	376.007	-2105.47089	37.97085	122.94959	-2156.99463	48.2484	79.21887	-2035.86349	83.94676	62.44298	-2226.28159
48	1.617	222.21533	1650.19394	-1999.97742	90.97668	1643.62061	-2004.95651	223.72429	1639.9971	-2135.065	97.00578	1632.12112	-2132.75818	240.71732	1389.79065	-2054.01154	99.02138	1387.59659	-2053.05191	232.97083	1446.62674	-2167.95425	82.2046	1450.85236	-2158.8504	155.56304	1294.13055	-2231.01181	165.83818	1317.62527	-2005.03098	163.77981	1231.54121	-1963.72757	355.00458	1413.83957	-2124.53293	394.50241	1195.06523	-2129.52637	379.74049	1085.513	-2144.45938	403.53073	982.09084	-2102.76047	332.82402	851.78909	-2033.07083	401.78593	839.77333	-2064.41315	393.80306	802.17484	-2012.84592	-10.06034	1416.91483	-2113.61404	-42.48289	1185.60242	-2173.26859	-68.28231	1085.7428	-2126.78375	-59.47645	972.97737	-2134.14642	-79.70918	838.16925	-2082.72125	-85.63909	799.87953	-2027.29507	290.92848	975.67932	-2016.76849	11.58972	973.62831	-2035.53482	242.52781	1043.42438	-2186.17722	65.69859	1047.46109	-2197.53922	295.07393	677.71881	-2188.06564	282.77973	506.22921	-2112.99896	-32.24099	851.22467	-2028.33984	279.05916	308.96538	-2118.25211	274.72778	125.04279	-2169.18777	234.82674	75.88487	-2231.32797	249.62311	87.12596	-2034.40506	9.91365	723.8665	-2193.90182	28.3283	563.84548	-2090.76889	81.31096	375.97698	-2105.38528	38.00098	122.96446	-2156.95862	48.25325	79.22768	-2035.86151	83.9524	62.43879	-2226.28052
49	1.65	222.07653	1650.0441	-1998.90625	90.88981	1643.63525	-2004.03595	223.74359	1639.96246	-2134.08646	97.00253	1632.08344	-2131.76559	240.68462	1389.81796	-2053.09891	99.0941	1387.44659	-2052.20871	232.94424	1446.74591	-2167.03445	82.18699	1450.92194	-2157.91824	155.60362	1294.27185	-2230.3093	165.80822	1317.43622	-2004.34784	163.67304	1231.29921	-1963.10638	354.8608	1413.92365	-2123.71246	394.56505	1195.13504	-2128.75168	379.90585	1085.63454	-2143.86673	403.77621	982.21786	-2102.20459	333.05336	851.81938	-2032.65427	402.13989	839.85336	-2063.92548	393.81779	801.90872	-2012.48428	-10.07759	1416.94992	-2112.83356	-42.82428	1185.86266	-2172.99072	-68.37173	1085.81398	-2126.30173	-59.58283	973.06152	-2133.78082	-79.83816	838.13156	-2082.50214	-85.79289	799.83467	-2027.08374	290.84126	975.59258	-2016.32233	11.50466	973.57155	-2035.19409	242.50175	1043.42773	-2185.69489	65.68715	1047.50961	-2197.10236	295.04791	677.76291	-2187.72858	282.61042	506.09142	-2113.02536	-32.41673	851.21147	-2028.07892	279.0189	308.93259	-2118.13065	274.68491	125.07324	-2169.10233	234.80724	75.94358	-2231.33942	249.62364	87.136	-2034.38705	9.87288	723.81729	-2193.61206	28.25042	563.81447	-2090.61646	81.31503	375.99922	-2105.25726	37.97444	122.97214	-2156.95343	48.24345	79.2042	-2035.87814	83.94915	62.4388	-2226.2793
